<?xml version="1.0" encoding="iso-8859-1"?>
<!-- Generator: Adobe Illustrator 19.0.0, SVG Export Plug-In . SVG Version: 6.00 Build 0)  -->
<svg version="1.1" fill="white" id="Capa_1" xmlns="http://www.w3.org/2000/svg" xmlns:xlink="http://www.w3.org/1999/xlink" x="0px" y="0px"
	 viewBox="0 0 59.982 59.982" style="enable-background:new 0 0 59.982 59.982;" xml:space="preserve">
<g>
	<path d="M51.991,7.982c-14.628,0-21.169-7.566-21.232-7.64c-0.38-0.456-1.156-0.456-1.536,0c-0.064,0.076-6.537,7.64-21.232,7.64
		c-0.552,0-1,0.448-1,1v19.085c0,10.433,4.69,20.348,12.546,26.521c3.167,2.489,6.588,4.29,10.169,5.352
		c0.093,0.028,0.189,0.042,0.285,0.042s0.191-0.014,0.285-0.042c3.581-1.063,7.002-2.863,10.169-5.352
		c7.856-6.174,12.546-16.088,12.546-26.521V8.982C52.991,8.43,52.544,7.982,51.991,7.982z M50.991,28.067
		c0,9.824-4.404,19.151-11.782,24.949c-2.883,2.266-5.983,3.92-9.218,4.921c-3.235-1-6.335-2.655-9.218-4.921
		C13.395,47.219,8.991,37.891,8.991,28.067V9.971c12.242-0.272,18.865-5.497,21-7.545c2.135,2.049,8.758,7.273,21,7.545V28.067z"/>
	<path d="M29.429,7.986c-3.015,2.049-8.163,4.689-15.564,5.633c-0.5,0.064-0.874,0.489-0.874,0.992v13.457
		c0,8.607,3.833,16.758,10.254,21.804c2.022,1.589,4.169,2.835,6.381,3.703c0.118,0.046,0.242,0.069,0.365,0.069
		c0.198,0,0.395-0.059,0.563-0.174c0.273-0.187,0.437-0.496,0.437-0.826V8.813c0-0.371-0.205-0.71-0.532-0.884
		C30.133,7.757,29.736,7.779,29.429,7.986z"/>
</g>
<g>
</g>
<g>
</g>
<g>
</g>
<g>
</g>
<g>
</g>
<g>
</g>
<g>
</g>
<g>
</g>
<g>
</g>
<g>
</g>
<g>
</g>
<g>
</g>
<g>
</g>
<g>
</g>
<g>
</g>
</svg>
