<?xml version='1.0' encoding='iso-8859-1'?>
<svg fill="white" version="1.1" xmlns="http://www.w3.org/2000/svg" viewBox="0 0 297 297" xmlns:xlink="http://www.w3.org/1999/xlink" enable-background="new 0 0 297 297">
  <g>
    <path d="m95.467,91.12c16.046,4.813 37.232,7.465 59.66,7.465s43.614-2.651 59.66-7.465c19.499-5.849 29.385-14.18 29.385-24.759s-9.886-18.909-29.385-24.758c-16.046-4.814-37.233-7.466-59.66-7.466s-43.614,2.651-59.66,7.466c-19.499,5.849-29.385,14.179-29.385,24.758s9.886,18.91 29.385,24.759zm6.239-34.937c14.426-4.065 33.398-6.303 53.422-6.303s38.997,2.238 53.422,6.303c15.301,4.31 19.495,9.015 19.868,10.178-0.373,1.164-4.567,5.868-19.868,10.179-14.425,4.065-33.397,6.302-53.422,6.302s-38.996-2.237-53.422-6.302c-15.301-4.31-19.495-9.015-19.868-10.179 0.373-1.163 4.567-5.868 19.868-10.178z"/>
    <g>
      <path d="m67.509,184.417c0-26.822 21.001-48.644 46.813-48.644 0.176,0 0.35,0.012 0.524,0.014-4.384-11.82-15.131-20.797-28.48-22.244-17.599-1.916-33.418,10.442-37.636,29.373-1.503,6.756-5.326,12.648-11.366,17.514-6.913,5.568-18.141-3.704-18.212-3.764-2.16-1.849-5.009-2.672-7.829-2.261-2.813,0.412-5.31,2.022-6.848,4.415-9.619,14.967-3.324,37 14.967,52.393 10.043,8.449 23.185,14.136 36.779,14.136 7.979,0 16.113-1.972 23.864-6.484-8.356-12.256-12.576-23.776-12.576-34.448z"/>
      <path d="m180.411,149.549c-18.254,0-33.043,15.608-33.043,34.868 0-19.26-14.794-34.868-33.046-34.868-18.248,0-33.038,15.608-33.038,34.868 0,34.871 66.084,78.445 66.084,78.445s66.072-43.58 66.072-78.445c0-19.26-14.779-34.868-33.029-34.868z"/>
      <path d="m292.524,158.82c-1.537-2.393-4.034-4.003-6.848-4.415-2.817-0.417-5.669,0.411-7.828,2.261-0.11,0.096-11.396,9.253-18.213,3.762-6.038-4.862-9.862-10.756-11.367-17.516-4.216-18.926-20.038-31.293-37.634-29.369-13.361,1.449-24.116,10.438-28.493,22.275 25.009,0.951 45.074,22.38 45.074,48.599 0,10.387-3.991,21.579-11.912,33.471 8.23,5.212 16.94,7.461 25.477,7.461 13.591,0 26.738-5.686 36.779-14.137 18.29-15.392 24.584-37.425 14.965-52.392z"/>
    </g>
  </g>
</svg>
