<?xml version='1.0' encoding='iso-8859-1'?>
<svg fill="white" version="1.1" xmlns="http://www.w3.org/2000/svg" viewBox="0 0 512 512" xmlns:xlink="http://www.w3.org/1999/xlink" enable-background="new 0 0 512 512">
  <path d="m352,153.98v-89.98c17.672,0 32-14.328 32-32s-14.328-32-32-32h-32-128-32c-17.672,0-32,14.328-32,32s14.328,32 32,32v89.98c-57.29,33.26-96,95.141-96,166.02 0,105.867 86.133,192 192,192s192-86.133 192-192c0-70.879-38.71-132.76-96-166.02zm-144,246.02c-17.673,0-32-14.328-32-32 0-17.674 14.327-32 32-32 17.674,0 32,14.326 32,32 0,17.672-14.326,32-32,32zm80,16c-8.836,0-16-7.164-16-16s7.164-16 16-16c8.837,0 16,7.164 16,16s-7.163,16-16,16zm48-48c-8.836,0-16-7.164-16-16s7.164-16 16-16c8.837,0 16,7.164 16,16s-7.163,16-16,16zm-192-64c0-50.729 33.747-93.525 80-107.301v-132.699h64v132.699c46.252,13.775 80,56.572 80,107.301h-224z"/>
</svg>
