<?xml version="1.0" encoding="iso-8859-1"?>
<!-- Generator: Adobe Illustrator 18.1.1, SVG Export Plug-In . SVG Version: 6.00 Build 0)  -->
<svg  version="1.1" id="Capa_1" xmlns="http://www.w3.org/2000/svg" xmlns:xlink="http://www.w3.org/1999/xlink" x="0px" y="0px"
	 viewBox="0 0 266.001 266.001" style="enable-background:new 0 0 266.001 266.001;" xml:space="preserve">
<g>
	<path fill="white" d="M245.928,84.493c-13.393-16.435-27.768-24.637-43.139-24.637c-10.873,0-21.072,4.354-30.619,13.117
		c-6.626-5.045-13.782-8.627-21.478-10.745c-1.591-20.661-10.733-35.643-27.436-44.942l-17.491,12.351
		c11.39,7.412,18.021,17.745,19.876,31c-11.398,1.33-22.001,5.568-31.811,12.713c-9.802-9.005-20.275-13.495-31.403-13.495
		c-15.644,0-29.696,8.202-42.15,24.637C6.755,101.449,0,121.479,0,144.535c0,5.828,0.532,11.684,1.583,17.498
		c3.978,23.857,15.116,44.676,33.402,62.42c16.434,16.184,31.681,24.263,45.731,24.263c0.332,0,0.674-0.012,1.016-0.035
		c16.083-4.937,33.156-7.599,50.857-7.599c14.784,0,29.134,1.858,42.833,5.346l-0.074-0.098l0.323,0.16
		c2.618,0.67,5.21,1.404,7.78,2.193c0.348,0.021,0.696,0.033,1.043,0.033c14.053,0,29.154-8.079,45.328-24.263v-0.001
		c17.755-17.744,29.156-38.562,34.189-62.42c1.34-6.616,1.99-13.117,1.99-19.48C266.002,120.274,259.306,100.924,245.928,84.493z
		 M50.095,116.709l56.861,19.495c-4.774,12.975-13.386,19.467-25.846,19.467c-3.446,0-6.499-0.533-9.143-1.59l0,0
		C54.995,147.196,47.713,134.73,50.095,116.709z M100.597,238.384c0.265-0.268,0.664-0.668,1.187-1.194l0.398,0.405
		C101.917,237.857,101.39,238.116,100.597,238.384z M197.615,201.402H66.793l-9.538-26.653l25.451,17.115l20.669-17.115
		l27.845,19.486l29.025-20.658l22.66,19.48l26.645-16.697L197.615,201.402z M197.616,154.081c-2.92,1.056-5.962,1.59-9.14,1.59
		c-12.727,0-21.348-6.492-25.852-19.467l56.857-19.496C221.607,134.729,214.307,147.196,197.616,154.081z"/>
</g>
<g>
</g>
<g>
</g>
<g>
</g>
<g>
</g>
<g>
</g>
<g>
</g>
<g>
</g>
<g>
</g>
<g>
</g>
<g>
</g>
<g>
</g>
<g>
</g>
<g>
</g>
<g>
</g>
<g>
</g>
</svg>
