<?xml version="1.0" encoding="iso-8859-1"?>
<!-- Generator: Adobe Illustrator 17.1.0, SVG Export Plug-In . SVG Version: 6.00 Build 0)  -->
<svg fill="white" version="1.1" id="Capa_1" xmlns="http://www.w3.org/2000/svg" xmlns:xlink="http://www.w3.org/1999/xlink" x="0px" y="0px"
	 viewBox="0 0 379.57 379.57" style="enable-background:new 0 0 379.57 379.57;" xml:space="preserve">
<path d="M320.962,123.055c-30.868-24.218-78.682-53.087-131.177-53.087c-52.263,0-100.19,29.226-131.192,53.744
	C27.928,147.963,0,179.456,0,189.785c0,11.773,26.846,42.62,58.623,67.36c25.163,19.591,75.664,52.457,131.162,52.457
	c55.526,0,106.01-32.82,131.161-52.384c31.778-24.719,58.625-55.599,58.625-67.433C379.57,178.732,352.183,147.55,320.962,123.055z
	 M189.785,268.254c-43.337,0-78.468-35.132-78.468-78.468c0-43.337,35.131-78.468,78.468-78.468s78.468,35.131,78.468,78.468
	C268.253,233.122,233.122,268.254,189.785,268.254z"/>
<g>
</g>
<g>
</g>
<g>
</g>
<g>
</g>
<g>
</g>
<g>
</g>
<g>
</g>
<g>
</g>
<g>
</g>
<g>
</g>
<g>
</g>
<g>
</g>
<g>
</g>
<g>
</g>
<g>
</g>
</svg>
